<svg width="232" height="96" viewBox="0 0 232 96" fill="none" xmlns="http://www.w3.org/2000/svg">
<g filter="url(#filter0_d_1_4)">
<path d="M211.935 79.6319C210.022 79.6319 208.564 79.1237 207.56 78.1074C206.603 77.0428 206.125 75.5667 206.125 73.6794C206.125 72.1791 207.201 64.7264 209.353 51.3212L209.711 49.1435H204.547L204.978 46.748C206.938 46.2156 208.516 45.5623 209.711 44.788C210.907 44.0137 211.839 43.1426 212.508 42.1747C213.178 41.1584 213.943 39.8276 214.803 38.1822H217.672L216.525 45.2236H228L227.211 49.1435H215.879L215.449 51.6116C213.393 64.0973 212.365 71.1387 212.365 72.7357C212.365 74.3327 213.226 75.1312 214.947 75.1312C215.999 75.1312 217.146 74.8166 218.389 74.1875C219.633 73.51 221.091 72.5905 222.764 71.429L224.486 73.8971C222.191 75.7361 220.135 77.1637 218.318 78.18C216.501 79.1479 214.373 79.6319 211.935 79.6319Z" fill="#C0D1FF"/>
</g>
<path d="M162.188 95.3426C160.084 95.3426 158.386 94.8345 157.095 93.8182C155.757 92.8019 155.087 91.4227 155.087 89.6805C155.087 88.1803 155.518 87.0188 156.378 86.1961C157.239 85.3734 158.243 84.9621 159.391 84.9621C160.251 84.9621 160.992 85.1798 161.614 85.6154C162.235 86.0993 162.642 86.7526 162.833 87.5753C162.451 87.7689 162.164 88.0835 161.972 88.519C161.733 88.9546 161.614 89.3901 161.614 89.8257C161.614 90.4064 161.781 90.8903 162.116 91.2775C162.451 91.6647 162.929 91.8582 163.55 91.8582C164.793 91.8582 165.75 91.3259 166.419 90.2612C167.136 89.2449 167.638 87.9625 167.925 86.4139C168.212 84.8653 168.499 82.7117 168.786 79.9533C169.121 77.1464 169.36 75.2832 169.503 74.3637L173.448 49.4649H168.14L168.571 46.9968C171.153 46.3677 172.97 45.8837 174.021 45.545L174.667 42.2057C175.575 37.4631 177.631 34.0513 180.835 31.9704C184.086 29.8894 187.696 28.8489 191.665 28.8489C194.533 28.8489 196.852 29.4055 198.622 30.5185C200.391 31.6316 201.275 33.156 201.275 35.0918C201.275 36.4952 200.821 37.6809 199.913 38.6488C199.052 39.5683 198 40.028 196.757 40.028C196.04 40.028 195.346 39.8344 194.677 39.4473C194.055 39.0117 193.577 38.431 193.243 37.7051C193.768 36.6404 194.031 35.7209 194.031 34.9466C194.031 34.0271 193.697 33.3012 193.027 32.7689C192.358 32.1881 191.45 31.8978 190.302 31.8978C187.146 31.8978 184.66 33.1076 182.843 35.5273C181.026 37.8987 180.118 41.3588 180.118 45.9079H183.919C186.357 45.9079 190.039 45.6659 194.964 45.182L198.335 44.8916L199.482 46.4886C196.709 63.3298 195.322 72.2828 195.322 73.3474C195.322 73.9282 195.394 74.3395 195.538 74.5815C195.729 74.8235 196.087 74.9444 196.613 74.9444C197.187 74.9444 197.857 74.7751 198.622 74.4363C199.434 74.0492 199.984 73.7588 200.271 73.5652L200.988 75.8881C199.889 76.856 198.55 77.7755 196.972 78.6466C195.442 79.5177 194.055 79.9533 192.812 79.9533C191.187 79.9533 190.111 79.6387 189.585 79.0096C189.059 78.3804 188.796 77.4368 188.796 76.1785C188.796 75.4526 189.465 70.9277 190.804 62.6039C191.904 55.6351 192.454 51.933 192.454 51.4974C192.454 50.7231 192.191 50.1908 191.665 49.9004C191.187 49.6101 190.302 49.4649 189.011 49.4649H179.544L175.528 75.1622C174.906 79.2757 174.237 82.6391 173.519 85.2524C172.802 87.9141 171.535 90.2612 169.718 92.2938C167.901 94.3263 165.391 95.3426 162.188 95.3426Z" fill="#C0D1FF"/>
<path d="M154.557 79.9524C153.171 79.9524 152.167 79.662 151.545 79.0813C150.971 78.5006 150.684 77.5327 150.684 76.1776C150.684 75.5001 150.995 73.0562 151.617 68.8459C152.286 64.5872 152.716 61.9013 152.908 60.7883C153.864 54.981 154.342 51.8111 154.342 51.2788C154.342 49.9721 153.553 49.3188 151.975 49.3188C151.641 49.3188 150.9 49.3672 149.752 49.464L149.393 47.1411C150.398 46.6571 151.784 46.1732 153.553 45.6893C155.37 45.1569 157.044 44.8907 158.574 44.8907C159.291 44.8907 159.936 44.9633 160.51 45.1085L161.371 46.4878C158.598 63.329 157.211 72.2819 157.211 73.3466C157.211 73.9757 157.283 74.4112 157.426 74.6532C157.617 74.8468 158 74.9436 158.574 74.9436C159.1 74.9436 159.721 74.7742 160.438 74.4354C161.203 74.0967 161.801 73.8063 162.231 73.5643L162.949 75.8873C161.849 76.8551 160.51 77.7746 158.932 78.6457C157.354 79.5168 155.896 79.9524 154.557 79.9524Z" fill="#C0D1FF"/>
<path d="M132.117 79.9535C130.204 79.9535 128.746 79.4454 127.742 78.4291C126.786 77.3644 126.308 75.8884 126.308 74.001C126.308 72.5008 127.383 65.0481 129.535 51.6429L129.894 49.4651H124.73L125.16 47.0696C127.12 46.5373 128.698 45.884 129.894 45.1097C131.089 44.3353 132.021 43.4643 132.691 42.4964C133.36 41.4801 134.125 40.1492 134.986 38.5038H137.854L136.707 45.5452H148.182L147.393 49.4651H136.061L135.631 51.9332C133.575 64.419 132.547 71.4603 132.547 73.0573C132.547 74.6543 133.408 75.4528 135.129 75.4528C136.181 75.4528 137.329 75.1383 138.572 74.5092C139.815 73.8316 141.273 72.9121 142.947 71.7507L144.668 74.2188C142.373 76.0578 140.317 77.4854 138.5 78.5017C136.683 79.4696 134.555 79.9535 132.117 79.9535Z" fill="#C0D1FF"/>
<path d="M111.446 79.9528C109.868 79.9528 108.792 79.6382 108.218 79.0091C107.692 78.38 107.429 77.5089 107.429 76.3958C107.429 75.6215 108.003 71.8468 109.151 65.0716C110.298 58.3932 110.872 54.6426 110.872 53.8199C110.872 52.2229 110.513 51.013 109.796 50.1903C109.127 49.3192 108.218 48.8837 107.071 48.8837C104.298 48.8837 101.883 50.7711 99.8269 54.5458C97.771 58.3206 96.3605 62.6761 95.5954 67.6123L93.7307 79.4447H87.6345C90.5033 61.2968 91.9377 51.9083 91.9377 51.2792C91.9377 50.5533 91.7226 50.0452 91.2922 49.7548C90.9097 49.4644 90.3121 49.3192 89.4992 49.3192C89.1645 49.3192 88.4234 49.3676 87.2759 49.4644L86.9173 47.1415C88.3517 46.5124 89.8817 45.98 91.5074 45.5445C93.1331 45.1089 94.6153 44.8912 95.9541 44.8912C96.5756 44.8912 97.1733 44.9638 97.7471 45.1089L98.4643 46.4882L97.7471 53.3844C99.038 51.013 100.616 49.0047 102.481 47.3593C104.393 45.7139 106.593 44.8912 109.079 44.8912C111.661 44.8912 113.645 45.5687 115.032 46.9237C116.466 48.2788 117.183 50.1903 117.183 52.6584C117.183 53.4812 116.968 55.1266 116.538 57.5947C116.155 60.0144 115.749 62.4583 115.319 64.9264C114.41 69.9594 113.956 72.8388 113.956 73.5648C113.956 74.0487 114.051 74.4117 114.243 74.6536C114.482 74.8472 114.84 74.944 115.319 74.944C115.844 74.944 116.466 74.7746 117.183 74.4359C117.948 74.0971 118.546 73.8067 118.976 73.5648L119.693 75.8877C118.594 76.8556 117.255 77.7751 115.677 78.6462C114.147 79.5173 112.737 79.9528 111.446 79.9528Z" fill="#C0D1FF"/>
<path d="M67.372 79.9528C63.4035 79.9528 60.4869 78.7913 58.6221 76.4684C56.8052 74.0971 55.8968 71.2902 55.8968 68.0478C55.8968 63.4504 56.6379 59.4094 58.1201 55.9251C59.6023 52.3923 61.6822 49.6822 64.3598 47.7948C67.0373 45.8591 70.0974 44.8912 73.54 44.8912C76.7913 44.8912 79.2298 45.6413 80.8554 47.1415C82.5289 48.6417 83.3656 50.4565 83.3656 52.5859C83.3656 54.9088 82.4572 57.0381 80.6403 58.9739C78.8234 60.9097 76.3131 62.4583 73.1096 63.6197C69.9539 64.7328 66.3918 65.2893 62.4233 65.2893V66.9589C62.4233 70.0562 62.9971 72.3791 64.1446 73.9277C65.2921 75.4279 66.8461 76.178 68.8064 76.178C71.484 76.178 74.7592 74.702 78.6321 71.75L80.712 74.4359C79.2298 75.9361 77.2933 77.2427 74.9026 78.3558C72.512 79.4205 70.0018 79.9528 67.372 79.9528ZM62.7819 61.7324C65.6029 61.7324 68.0892 61.3452 70.2408 60.5709C72.3924 59.7482 74.0659 58.6351 75.2612 57.2317C76.4566 55.8283 77.0543 54.2313 77.0543 52.4407C77.0543 51.2792 76.6957 50.2871 75.9784 49.4644C75.3091 48.6417 74.3289 48.2304 73.0379 48.2304C70.4082 48.2304 68.1848 49.4886 66.3679 52.0051C64.5988 54.5216 63.4035 57.764 62.7819 61.7324Z" fill="#C0D1FF"/>
<path d="M28.3045 79.9538C25.34 79.9538 23.0689 78.9859 21.491 77.0501C19.961 75.1143 19.196 71.8719 19.196 67.3229C19.196 63.161 19.8893 59.362 21.2759 55.926C22.7103 52.49 24.6467 49.8041 27.0852 47.8684C29.5237 45.8842 32.2013 44.8921 35.1179 44.8921C36.6957 44.8921 38.1541 45.0615 39.4928 45.4003C40.8794 45.6906 41.9552 46.0294 42.7203 46.4165C42.9593 45.0131 43.294 43.029 43.7243 40.4641C44.1547 37.8508 44.3937 36.278 44.4415 35.7456C44.585 33.7615 43.1745 32.7694 40.21 32.7694H38.9191L39.3494 29.9383C42.5051 29.2608 45.3739 28.922 47.9558 28.922C48.5774 28.922 49.462 28.9704 50.6095 29.0672L51.4701 30.6642L49.5337 42.787C48.434 49.5622 47.406 55.9018 46.4497 61.8059C45.4934 67.71 44.8719 71.7509 44.585 73.9287C44.585 74.6062 45.0392 74.945 45.9477 74.945C46.9517 74.945 48.2188 74.4852 49.7488 73.5657L50.466 75.8886C49.3663 76.8565 48.0276 77.776 46.4497 78.6471C44.8719 79.5182 43.3896 79.9538 42.003 79.9538C39.5167 79.9538 38.2736 78.8649 38.2736 76.6871C38.2736 75.8161 38.4648 74.3642 38.8474 72.3317C37.4608 74.461 35.859 76.2758 34.0421 77.776C32.273 79.2278 30.3604 79.9538 28.3045 79.9538ZM30.1692 76.179C31.4602 76.179 32.8228 75.4047 34.2573 73.8561C35.6917 72.3075 37.0065 70.1297 38.2019 67.3229C39.445 64.4676 40.3535 61.2252 40.9272 57.5956L42.1465 49.9735C40.3296 48.7637 38.5366 48.1587 36.7675 48.1587C34.6637 48.1587 32.7511 49.1508 31.0298 51.135C29.3086 53.1192 27.9698 55.5873 27.0135 58.5393C26.0572 61.4914 25.5791 64.3224 25.5791 67.0325C25.5791 70.1781 25.9855 72.501 26.7983 74.0013C27.659 75.4531 28.7826 76.179 30.1692 76.179Z" fill="#C0D1FF"/>
<path d="M5.16386 80.9522C3.77727 80.9522 2.77319 80.6618 2.15161 80.0811C1.57785 79.5004 1.29097 78.5325 1.29097 77.1774C1.29097 76.4999 1.60175 74.056 2.22333 69.8457C2.89272 65.587 3.32304 62.9011 3.5143 61.7881C4.47057 55.9808 4.9487 52.8109 4.9487 52.2786C4.9487 50.972 4.15978 50.3186 2.58193 50.3186C2.24724 50.3186 1.50613 50.367 0.358602 50.4638L0 48.1409C1.00408 47.657 2.39068 47.173 4.15978 46.6891C5.97669 46.1567 7.65017 45.8906 9.1802 45.8906C9.8974 45.8906 10.5429 45.9632 11.1167 46.1083L11.9773 47.4876C9.20411 64.3288 7.81752 73.2817 7.81752 74.3464C7.81752 74.9755 7.88924 75.4111 8.03268 75.653C8.22393 75.8466 8.60644 75.9434 9.1802 75.9434C9.70615 75.9434 10.3277 75.774 11.0449 75.4352C11.8099 75.0965 12.4076 74.8061 12.8379 74.5642L13.5551 76.8871C12.4554 77.855 11.1167 78.7744 9.5388 79.6455C7.96096 80.5166 6.50264 80.9522 5.16386 80.9522ZM8.67816 42.0432C7.67408 42.0432 6.86125 41.7287 6.23967 41.0995C5.66591 40.4704 5.37902 39.6477 5.37902 38.6314C5.37902 37.228 5.78544 36.0423 6.59827 35.0745C7.4111 34.1066 8.43909 33.6226 9.68224 33.6226C10.7341 33.6226 11.547 33.9372 12.1207 34.5663C12.6945 35.1954 12.9814 36.0423 12.9814 37.107C12.9814 38.5104 12.575 39.6961 11.7621 40.664C10.9493 41.5835 9.92131 42.0432 8.67816 42.0432Z" fill="#C0D1FF"/>
<path d="M156.873 11.1045C156.441 17.6911 152.892 22.9028 148.407 23.5368L140.836 24.6063L148.407 25.6758C152.892 26.3098 156.442 31.5216 156.873 38.1081L157.602 49.2124L158.33 38.1081C158.762 31.5216 162.312 26.3098 166.796 25.6758L174.368 24.6063L166.796 23.5368C162.311 22.9028 158.762 17.6911 158.33 11.1045L157.602 0.000179291L156.873 11.1045Z" fill="#FFE69C"/>
<defs>
<filter id="filter0_d_1_4" x="200.547" y="38.1822" width="31.4525" height="49.4496" filterUnits="userSpaceOnUse" color-interpolation-filters="sRGB">
<feFlood flood-opacity="0" result="BackgroundImageFix"/>
<feColorMatrix in="SourceAlpha" type="matrix" values="0 0 0 0 0 0 0 0 0 0 0 0 0 0 0 0 0 0 127 0" result="hardAlpha"/>
<feOffset dy="4"/>
<feGaussianBlur stdDeviation="2"/>
<feComposite in2="hardAlpha" operator="out"/>
<feColorMatrix type="matrix" values="0 0 0 0 0 0 0 0 0 0 0 0 0 0 0 0 0 0 0.25 0"/>
<feBlend mode="normal" in2="BackgroundImageFix" result="effect1_dropShadow_1_4"/>
<feBlend mode="normal" in="SourceGraphic" in2="effect1_dropShadow_1_4" result="shape"/>
</filter>
</defs>
</svg>
